<?xml version="1.0" encoding="utf-8"?>
<!-- Generator: Adobe Illustrator 24.3.0, SVG Export Plug-In . SVG Version: 6.00 Build 0)  -->
<svg version="1.1" id="Layer_1" xmlns="http://www.w3.org/2000/svg" xmlns:xlink="http://www.w3.org/1999/xlink" x="0px" y="0px"
	 viewBox="0 0 230.3145 334.8375" enable-background="new 0 0 230.3145 334.8375" xml:space="preserve">
<g>
	<path d="M141.7316,255.5211c0.6562,2.272,2.2385,4.0149,4.2123,4.9691c1.2895-1.6195,3.0318-2.8141,5.0549-3.4271l1.8265-0.5535
		l0.4728-5.1169c0.3022-3.2742,1.6687-6.2904,3.8438-8.6509l-9.945,2.873C142.9519,246.8414,140.5051,251.276,141.7316,255.5211z"/>
	<polygon points="178.9848,270.108 157.7968,276.5284 177.077,286.5687 177.4866,286.3214 	"/>
	<path d="M155.2015,255.7897l33.0112-10.0032l-16.5664-4.9993c-3.5928-1.083-7.4824-0.4971-10.5947,1.5996
		c-3.1123,2.0962-5.1182,5.4805-5.4634,9.2173L155.2015,255.7897z"/>
	<path d="M204.1333,197.8251c-1.3323,0.6907-2.4879,1.759-3.2805,3.1638l-19.6401,34.7988l-9.3113,2.6901
		c0.1363,0.0369,0.2742,0.0665,0.4095,0.1073l18.5578,5.6002l14.6888-33.4103c1.1356-2.5842,3.2648-4.512,5.8136-5.4719v-9.7747
		c-1.8889,0.144-3.6754,0.5576-5.2761,1.2131C205.3892,197.0304,204.7467,197.4088,204.1333,197.8251z"/>
	<path d="M165.992,167.4585c-11.0253,5.735-15.3112,19.3199-9.5772,30.3436c5.735,11.0254,19.3179,15.3135,30.3432,9.5785
		c11.0236-5.7341,15.313-19.3187,9.578-30.3441C190.6019,166.0131,177.0156,161.7245,165.992,167.4585z M180.5059,200.7358
		c-0.9497-1.52-10.3193-2.0986-20.0537-1.2393l-0.2637-2.9883c6.0444-0.5342,20.3721-1.3467,22.8613,2.6377L180.5059,200.7358z"/>
	<path d="M207.4149,257.733c-1.2109,2.7559-3.5586,4.8379-6.4414,5.7119l-20.3472,6.1655l16.3654,4.9387l12.085-7.2939
		l2.2147,1.3496l-31.8248,19.2081l31.9046,16.6145v-55.693L207.4149,257.733z"/>
	<path d="M207.663,211.7008l-15.5186,35.2979l-40.4785,12.2656c-4.2285,1.2812-6.6172,5.748-5.3359,9.9766
		c0.1883,0.6213,0.4659,1.1868,0.7809,1.7229l7.512,3.9119c0.5606-0.0452,1.1235-0.1292,1.6837-0.2988l44-13.333
		c2.2354-0.6777,4.0635-2.2979,5.0029-4.4365l6.0616-13.7875v-35.2357C209.7754,208.5913,208.4389,209.9354,207.663,211.7008z"/>
	<polygon points="199.5139,73.0658 200.2798,71.1361 188.9158,51.1699 188.2608,53.0486 	"/>
	<polygon points="203.7824,62.3101 191.9049,42.595 191.2218,44.5549 202.9806,64.3302 	"/>
	<polygon points="209.079,78.8461 184.854,37.4696 184.2385,39.355 208.2243,80.8458 	"/>
	<path d="M131.0406,53.8638v218.8855l0.5293,0.4248l88.7446,53.2778v0.1606h10V0h-10v0.1602L131.5699,53.439L131.0406,53.8638z
		 M133.6695,59.2773l81.0014-43.6548v295.3748l-81.0014-43.6572V59.2773z"/>
	<polygon points="158.345,87.9628 158.9433,86.4555 150.0664,70.8589 149.5547,72.3265 	"/>
	<polygon points="161.6793,79.561 152.4013,64.1607 151.8676,65.6916 161.0531,81.139 	"/>
	<polygon points="165.8168,92.4781 146.8934,60.1569 146.4126,61.6298 165.1491,94.0402 	"/>
	<path d="M151.9516,318.6378l-1.8664-0.4468l2.6577,6.0781l8.6357,7.3662l4.8035-5.6123l2.8269-3.3027L151.9516,318.6378z
		 M153.9792,323.3512l-1.312-3l13.6074,3.2578l-5.062,5.9131L153.9792,323.3512z"/>
	<path d="M185.1213,313.8698l-14.7319-5.9971l1.4385,5.3926l5.9741,6.9102L185.1213,313.8698z M173.1882,312.5446l-0.5723-2.1465
		l9.6685,3.9365l-4.3271,3.7275L173.1882,312.5446z"/>
	<path d="M195.1105,327.7545l-7.2793-6.2568l-8.3965,3.958l-3.0349,6.714l-1.2059,2.6678l5.3778-0.1582l7.3331-0.2158
		L195.1105,327.7545z M180.5744,326.5768l7.0166-3.3076l5.2705,4.5303l-5.5649,5.1816l-9.7471,0.2861L180.5744,326.5768z"/>
	<polygon points="154.3035,308.6765 151.5081,308.9161 150.3899,311.472 153.0257,312.7499 155.3419,311.7914 	"/>
	<polygon points="135.2146,314.8729 134.0963,317.4288 136.7321,318.7067 139.0483,317.7483 138.01,314.6334 	"/>
	<polygon points="129.9129,291.337 130.6835,292.3829 132.7752,293.649 135.4174,293.0985 136.3532,291.5022 134.3165,289.9609 	"/>
	<polygon points="153.9129,302.016 156.5551,301.4655 157.4909,299.8693 155.4541,298.3279 151.0505,299.704 151.8211,300.7499 	"/>
	<polygon points="199.711,330.0692 201.1948,332.0829 205.2222,334.5206 210.3094,333.4607 212.1112,330.3872 208.1897,327.4196 	
		"/>
	<path d="M149.3201,125.3875l6.5554-5.985l3.9541-0.269l0.2434,0.3408l7.765,3.6451l2.616-1.0275l0.0001,0.0001l1.9009,2.5736
		l-1.0331,3.6827l1.1761,6.1381l-2.5251,6.5969l-7.3804,3.5281l0.1672,0.918l7.5978-3.636l2.7872-7.272l-1.1929-6.2101l2.0326-7.285
		l0,0l3.157,6.7991l6.2781,5.6307l2.3677,8.7603l1.7448-1.215l1.5441,4.167l0.6634,5.58l1.5385,5.256l3.4561,2.322l0.2731,6.6061
		l4.3759,12.4829l9.0527,3.996l0.1561-0.918l-8.813-3.897l-4.1919-11.943l-0.2842-6.975l-3.5843-2.412l-1.4159-4.8151l-0.6689-5.625
		l-1.7556-4.7581l3.5093-2.614l2.009,4.6271l8.2834,2.2051l0.1951-1.8812l-7.7985-2.0698l-4.4595-10.2781l-6.0258,1.431
		l-5.6524-5.13l-0.7717-1.6637l-0.6505-8.6252l1.2883-2.257l0.0485-0.0395l3.6919-3.0115l1.9566,3.204l0.255-0.0466l1.4933,2.827
		l2.6422,0.9907l-0.3303,3.9634l3.633-0.1101l4.2936,2.0917l-0.7706-2.8624l-3.633-1.7615v-1.9816l-0.3317-0.9952l1.7789-0.4863
		l3.5453,0.2789l0.0279-0.954l-3.5787-0.279l-1.9995,0.5413l-0.4543-2.2169l-0.4191-4.6962l-3.9908-0.8394l-3.0749,3.6821
		l-0.9258-1.5109l-3.6833,2.9974l0.0822-6.4265l2.3412-2.412l2.8039-7.245l-0.7191-7.569l-0.5853,0.144l0.6857,7.2271l-2.5587,6.696
		l-2.553,2.628l-0.1003,7.551l-3.0995,5.3278l-0.4346,0.7472l-0.3842,1.3694l-3.0886,1.2406h-0.0001l3.0886-1.2407l0.3842-1.3693
		l0.4346-0.7472l-5.449,2.1499l2.0822-8.2968l-1.8005-4.347l1.8785-6.336l-1.8339-5.517l-1.0424,0.9l1.5497,4.662l-1.9064,6.444
		l1.8228,4.41l-0.2783,1.1121l-7.6417,4.4352l-0.8317,0.4827l0.8317-0.4827l-1.0045-0.4713l-8.9858-12.591l-0.7748,1.44
		l8.2868,11.6085l-3.4706,0.2355l-6.2043,5.661l-2.2186-5.391l-5.7081-0.567l-2.9154-6.237l-0.4738,0.576l3.0826,6.588l5.6858,0.567
		L149.3201,125.3875z M189.2657,131.8314l2.3134,5.58L189.2657,131.8314l-5.3773,1.0612L189.2657,131.8314z M167.3029,121.7784
		L167.3029,121.7784l0.0798-0.3191L167.3029,121.7784z"/>
	<polygon points="178.7581,122.3634 180.5531,122.9484 180.6255,120.1945 179.8396,118.5834 178.3623,120.2935 	"/>
	<path d="M106.9221,245.6149l-9.9451-2.8732c2.1751,2.3605,3.5416,5.3768,3.8438,8.651l0.4728,5.1169l1.8265,0.5535
		c2.0231,0.613,3.7654,1.8076,5.0549,3.4272c1.9739-0.9542,3.5562-2.6973,4.2124-4.9692
		C113.614,251.276,111.1672,246.8414,106.9221,245.6149z"/>
	<path d="M97.1455,276.778l-22.0114-6.6699l1.4982,16.2134l5.2656,3.1782c5.543,3.3452,8.2534,9.8228,6.7451,16.1191
		c-1.0558,4.4069-3.9981,7.9502-7.8809,9.8448c2.248,3.4642,6.1429,5.7079,10.4737,5.7079c0.3853,0,0.7734-0.0181,1.1646-0.0542
		c6.8745-0.6348,11.9321-6.7227,11.2969-13.5967l-2.8023-30.3289c-0.2512,0.0181-0.5038,0.0305-0.7592,0.0305
		C99.1249,277.2223,98.1191,277.0729,97.1455,276.778z"/>
	<path d="M98.9174,255.7896l-0.3867-4.1854c-0.3452-3.7368-2.3511-7.1211-5.4634-9.2173c-3.1123-2.0967-7.002-2.6826-10.5947-1.5996
		l-16.5663,4.9993L98.9174,255.7896z"/>
	<path d="M17.7719,282.6823l16.3662,9.8784l-22.5464,1.6431c-6.8853,0.5015-12.0601,6.4902-11.5581,13.3755
		c0.479,6.5762,5.9629,11.5923,12.4536,11.5918c0.3052,0,0.6128-0.0112,0.9219-0.0337l61.75-4.5
		c5.4297-0.3955,9.979-4.2603,11.2471-9.5547c1.2686-5.2944-1.0356-10.8008-5.6968-13.6138l-37.8818-22.864l2.2147-1.3496
		l12.085,7.2939l16.3654-4.9387l-20.3472-6.1655c-2.8828-0.874-5.2305-2.9561-6.4414-5.7119l-17-38.667
		c-2.2861-5.1992,0.084-11.2881,5.2832-13.5742c1.3174-0.5791,2.7109-0.873,4.1416-0.873c4.0859,0,7.7891,2.416,9.4326,6.1562
		l14.6888,33.4103l18.5577-5.6002c0.1354-0.0409,0.2733-0.0706,0.4096-0.1074l-9.3112-2.6899l-19.6401-34.7988
		c-0.7919-1.403-1.9462-2.4705-3.2767-3.161c-0.6146-0.4175-1.2584-0.7969-1.9657-1.0863
		c-8.1423-3.334-21.0552-0.5239-28.1428,13.2429c-1.5587,3.072-2.9362,5.9711-4.1804,8.7852
		C9.2553,233.3478,6.81,245.3722,6.2788,264.111C6.8041,275.1154,11.7976,280.1776,17.7719,282.6823z"/>
	<path d="M57.783,177.0365c-5.735,11.0254-1.4456,24.61,9.5781,30.3441c11.0253,5.735,24.6082,1.4469,30.3431-9.5785
		c5.7341-11.0237,1.4482-24.6086-9.5771-30.3436C77.1033,161.7245,63.517,166.0131,57.783,177.0365z M93.9304,196.5083
		l-0.2637,2.9883c-9.7344-0.8594-19.104-0.2808-20.0537,1.2393l-2.5439-1.5898C73.5584,195.1616,87.886,195.9741,93.9304,196.5083z"
		/>
	<path d="M92.2722,164.6887c0.0219-0.0033,2.2334-0.3019,3.8808,0.9796c1.0551,0.8203,1.6879,2.1429,1.878,3.9307
		c0.0591,0.5479,0.5516,0.9465,1.1007,0.8881c0.5495-0.0587,0.9466-0.5516,0.8881-1.101c-0.2525-2.3595-1.1467-4.1465-2.6591-5.312
		c-2.3346-1.8005-5.2608-1.3821-5.3842-1.3635c-0.5443,0.0825-0.9175,0.5892-0.8374,1.1342
		c0.0052,0.0372,0.0128,0.0736,0.0222,0.1093C91.2887,164.4391,91.7642,164.7614,92.2722,164.6887z"/>
	<path d="M103.4481,169.5319c0.551-0.0376,0.9669-0.5146,0.9296-1.0657c-0.2416-3.5269-1.4516-6.2371-3.5986-8.0558
		c-3.2674-2.7683-7.4807-2.3944-7.6588-2.3772c-0.5485,0.0533-0.949,0.5404-0.8972,1.0892c0.0054,0.0552,0.015,0.1089,0.0287,0.1609
		c0.122,0.4644,0.566,0.7859,1.0595,0.7408c0.0355-0.0033,3.5795-0.2994,6.19,1.9248c1.71,1.4565,2.6805,3.6937,2.8807,6.6533
		C102.4224,169.1539,102.8975,169.5692,103.4481,169.5319z"/>
	<path d="M61.9746,246.9987L46.456,211.7008c-1.7783-4.0459-6.499-5.8818-10.543-4.1035c-4.0449,1.7783-5.8818,6.498-4.1035,10.543
		l17,38.667c0.9395,2.1387,2.7676,3.7588,5.0029,4.4365l44,13.333c0.7734,0.2344,1.5547,0.3457,2.3232,0.3457
		c3.4326,0,6.6064-2.2266,7.6533-5.6816c1.2812-4.2285-1.1074-8.6953-5.3359-9.9766L61.9746,246.9987z"/>
	<path d="M105.8948,105.336c0.4263-2.5967-1.3345-5.0469-3.9319-5.4727l-0.1748-0.0288l-5.1084-0.8369
		c-9.189-1.4224-17.688-1.729-23.9436-1.0522c-3.1245,0.3394-5.6738,0.9102-7.4155,1.6733
		c-1.7402,0.7388-2.6111,1.6284-2.4907,2.3853c0.21,1.1348,2.1455,1.8809,5.4321,2.6455
		c-4.4766,0.8359-8.9453,1.7725-13.3894,2.8926l-0.1858,0.0459c-1.4692,0.3726-2.6077,1.6431-2.7405,3.2383
		c-0.1665,2.0098,1.3276,3.7744,3.3369,3.9414c6.6904,0.5552,13.4553,1.587,20.3201,2.4839
		c-2.5811,0.563-5.1558,1.1523-7.719,1.7861l-0.0952,0.0234c-0.7271,0.1807-1.3206,0.7661-1.4734,1.5498
		c-0.2104,1.0781,0.4939,2.123,1.572,2.3335c3.8093,0.7432,7.6516,1.2671,11.5059,1.5889
		c-0.2041,0.0747-0.4028,0.1416-0.6221,0.2378c-0.6755,0.292-1.4958,0.9888-1.801,1.853c-0.3196,0.8462-0.2771,1.5962-0.2556,2.1938
		l0.6445,13.9429c0.8469,18.3145,1.573,18.2983,1.6145-0.0361l0.0312-13.957c-0.0049-0.5571,0.043-1.002,0.1646-1.2437
		c0.1211-0.2339,0.2476-0.3496,0.6333-0.5195c0.7512-0.3057,2.0315-0.4893,3.1436-0.7363l6.8369-1.3975
		c0.6516-0.1333,1.1545-0.6973,1.1814-1.3921c0.0317-0.8159-0.6045-1.5029-1.4207-1.5347l-0.0725-0.0029
		c-3.3435-0.1294-6.6777-0.4229-9.9866-0.8706c5.6079-0.8789,11.2358-1.6123,16.8784-2.1641
		c1.2937-0.1245,2.3376-1.1782,2.4116-2.5156c0.0811-1.4761-1.0498-2.7379-2.5254-2.8189l-0.1294-0.0073
		c-5.7578-0.3164-11.4868-1.1631-17.2576-2.1704c7.5203-0.8071,15.1116-1.4126,22.7458-2.0815
		C103.7264,109.1265,105.5355,107.5303,105.8948,105.336z"/>
	<polygon points="162.8712,124.2218 159.8778,126.9725 158.0576,130.0062 159.3924,134.3749 166.0667,133.2828 168.7365,131.8265 
		168.7365,129.2782 167.6443,128.4287 168.1297,126.1635 	"/>
</g>
</svg>
